<mxfile host="app.diagrams.net" agent="Mozilla/5.0 (Windows NT 10.0; Win64; x64) AppleWebKit/537.36 (KHTML, like Gecko) Chrome/140.0.0.0 Safari/537.36" version="28.2.5">
  <diagram name="Page-1" id="kFJXMugSvY1EiGRJ9PHQ">
    <mxGraphModel dx="2590" dy="1523" grid="0" gridSize="10" guides="1" tooltips="1" connect="1" arrows="1" fold="1" page="1" pageScale="1" pageWidth="827" pageHeight="1169" background="none" math="0" shadow="0">
      <root>
        <mxCell id="0" />
        <mxCell id="1" parent="0" />
        <mxCell id="IC3wyQwt25YaoRTcBvP2-1" value="" style="rounded=0;whiteSpace=wrap;html=1;fillColor=#d5e8d4;strokeColor=#82b366;" vertex="1" parent="1">
          <mxGeometry x="557" y="428" width="580" height="1470" as="geometry" />
        </mxCell>
        <mxCell id="IC3wyQwt25YaoRTcBvP2-2" value="&lt;font style=&quot;color: light-dark(rgb(0, 0, 0), rgb(0, 0, 0));&quot;&gt;EcoRide&lt;/font&gt;" style="text;strokeColor=none;fillColor=none;html=1;fontSize=24;fontStyle=1;verticalAlign=middle;align=center;" vertex="1" parent="1">
          <mxGeometry x="557" y="428" width="130" height="40" as="geometry" />
        </mxCell>
        <mxCell id="IC3wyQwt25YaoRTcBvP2-3" style="edgeStyle=none;curved=1;rounded=0;orthogonalLoop=1;jettySize=auto;html=1;fontSize=12;startSize=8;endSize=8;endArrow=none;endFill=0;" edge="1" parent="1" source="IC3wyQwt25YaoRTcBvP2-4" target="IC3wyQwt25YaoRTcBvP2-41">
          <mxGeometry relative="1" as="geometry" />
        </mxCell>
        <mxCell id="IC3wyQwt25YaoRTcBvP2-4" value="&lt;div&gt;Administrateur&lt;/div&gt;" style="shape=umlActor;verticalLabelPosition=bottom;verticalAlign=top;html=1;outlineConnect=0;" vertex="1" parent="1">
          <mxGeometry x="397" y="518" width="30" height="60" as="geometry" />
        </mxCell>
        <mxCell id="IC3wyQwt25YaoRTcBvP2-5" style="edgeStyle=orthogonalEdgeStyle;rounded=0;orthogonalLoop=1;jettySize=auto;html=1;fontSize=12;startSize=8;endSize=8;endArrow=none;endFill=0;entryX=0.937;entryY=0.256;entryDx=0;entryDy=0;entryPerimeter=0;" edge="1" parent="1" target="IC3wyQwt25YaoRTcBvP2-30">
          <mxGeometry relative="1" as="geometry">
            <mxPoint x="849.4264068711927" y="1357.9957287525378" as="targetPoint" />
            <mxPoint x="1291.9411764705883" y="1106.2800000000004" as="sourcePoint" />
            <Array as="points">
              <mxPoint x="1292" y="1378" />
              <mxPoint x="857" y="1378" />
            </Array>
          </mxGeometry>
        </mxCell>
        <mxCell id="IC3wyQwt25YaoRTcBvP2-6" style="edgeStyle=none;curved=1;rounded=0;orthogonalLoop=1;jettySize=auto;html=1;fontSize=12;startSize=8;endSize=8;endArrow=none;endFill=0;entryX=0.938;entryY=0.231;entryDx=0;entryDy=0;entryPerimeter=0;" edge="1" parent="1" source="IC3wyQwt25YaoRTcBvP2-11" target="IC3wyQwt25YaoRTcBvP2-31">
          <mxGeometry relative="1" as="geometry" />
        </mxCell>
        <mxCell id="IC3wyQwt25YaoRTcBvP2-7" style="edgeStyle=none;curved=1;rounded=0;orthogonalLoop=1;jettySize=auto;html=1;entryX=1;entryY=0.5;entryDx=0;entryDy=0;fontSize=12;startSize=8;endSize=8;endArrow=none;endFill=0;" edge="1" parent="1" source="IC3wyQwt25YaoRTcBvP2-11" target="IC3wyQwt25YaoRTcBvP2-32">
          <mxGeometry relative="1" as="geometry" />
        </mxCell>
        <mxCell id="IC3wyQwt25YaoRTcBvP2-8" style="edgeStyle=none;curved=1;rounded=0;orthogonalLoop=1;jettySize=auto;html=1;entryX=1;entryY=0.5;entryDx=0;entryDy=0;fontSize=12;startSize=8;endSize=8;endArrow=none;endFill=0;" edge="1" parent="1" source="IC3wyQwt25YaoRTcBvP2-11" target="IC3wyQwt25YaoRTcBvP2-33">
          <mxGeometry relative="1" as="geometry" />
        </mxCell>
        <mxCell id="IC3wyQwt25YaoRTcBvP2-9" style="edgeStyle=none;curved=1;rounded=0;orthogonalLoop=1;jettySize=auto;html=1;entryX=1;entryY=0.5;entryDx=0;entryDy=0;fontSize=12;startSize=8;endSize=8;endArrow=none;endFill=0;" edge="1" parent="1" source="IC3wyQwt25YaoRTcBvP2-11" target="IC3wyQwt25YaoRTcBvP2-34">
          <mxGeometry relative="1" as="geometry" />
        </mxCell>
        <mxCell id="IC3wyQwt25YaoRTcBvP2-10" style="edgeStyle=none;curved=1;rounded=0;orthogonalLoop=1;jettySize=auto;html=1;entryX=1;entryY=0.5;entryDx=0;entryDy=0;fontSize=12;startSize=8;endSize=8;endArrow=none;endFill=0;" edge="1" parent="1" source="IC3wyQwt25YaoRTcBvP2-11" target="IC3wyQwt25YaoRTcBvP2-35">
          <mxGeometry relative="1" as="geometry" />
        </mxCell>
        <mxCell id="IC3wyQwt25YaoRTcBvP2-11" value="Utilisateur" style="shape=umlActor;verticalLabelPosition=bottom;verticalAlign=top;html=1;outlineConnect=0;" vertex="1" parent="1">
          <mxGeometry x="1277" y="1058" width="30" height="60" as="geometry" />
        </mxCell>
        <mxCell id="IC3wyQwt25YaoRTcBvP2-12" style="edgeStyle=none;curved=1;rounded=0;orthogonalLoop=1;jettySize=auto;html=1;fontSize=12;startSize=8;endSize=8;endArrow=none;endFill=0;" edge="1" parent="1" source="IC3wyQwt25YaoRTcBvP2-13" target="IC3wyQwt25YaoRTcBvP2-36">
          <mxGeometry relative="1" as="geometry" />
        </mxCell>
        <mxCell id="IC3wyQwt25YaoRTcBvP2-13" value="Employe" style="shape=umlActor;verticalLabelPosition=bottom;verticalAlign=top;html=1;outlineConnect=0;" vertex="1" parent="1">
          <mxGeometry x="387" y="718" width="30" height="60" as="geometry" />
        </mxCell>
        <mxCell id="IC3wyQwt25YaoRTcBvP2-14" style="edgeStyle=none;curved=1;rounded=0;orthogonalLoop=1;jettySize=auto;html=1;fontSize=12;startSize=8;endSize=8;endArrow=none;endFill=0;" edge="1" parent="1" source="IC3wyQwt25YaoRTcBvP2-21" target="IC3wyQwt25YaoRTcBvP2-22">
          <mxGeometry relative="1" as="geometry" />
        </mxCell>
        <mxCell id="IC3wyQwt25YaoRTcBvP2-15" style="edgeStyle=none;curved=1;rounded=0;orthogonalLoop=1;jettySize=auto;html=1;fontSize=12;endArrow=none;endFill=0;" edge="1" parent="1" source="IC3wyQwt25YaoRTcBvP2-21" target="IC3wyQwt25YaoRTcBvP2-23">
          <mxGeometry relative="1" as="geometry" />
        </mxCell>
        <mxCell id="IC3wyQwt25YaoRTcBvP2-16" style="edgeStyle=none;curved=1;rounded=0;orthogonalLoop=1;jettySize=auto;html=1;entryX=0;entryY=0.5;entryDx=0;entryDy=0;fontSize=12;startSize=8;endSize=8;endArrow=none;endFill=0;" edge="1" parent="1" source="IC3wyQwt25YaoRTcBvP2-21" target="IC3wyQwt25YaoRTcBvP2-24">
          <mxGeometry relative="1" as="geometry" />
        </mxCell>
        <mxCell id="IC3wyQwt25YaoRTcBvP2-17" style="edgeStyle=none;curved=1;rounded=0;orthogonalLoop=1;jettySize=auto;html=1;entryX=0;entryY=0.5;entryDx=0;entryDy=0;fontSize=12;startSize=8;endSize=8;endArrow=none;endFill=0;" edge="1" parent="1" source="IC3wyQwt25YaoRTcBvP2-21" target="IC3wyQwt25YaoRTcBvP2-28">
          <mxGeometry relative="1" as="geometry" />
        </mxCell>
        <mxCell id="IC3wyQwt25YaoRTcBvP2-18" style="edgeStyle=none;curved=1;rounded=0;orthogonalLoop=1;jettySize=auto;html=1;entryX=0;entryY=0.5;entryDx=0;entryDy=0;fontSize=12;startSize=8;endSize=8;endArrow=none;endFill=0;" edge="1" parent="1" source="IC3wyQwt25YaoRTcBvP2-21" target="IC3wyQwt25YaoRTcBvP2-29">
          <mxGeometry relative="1" as="geometry" />
        </mxCell>
        <mxCell id="IC3wyQwt25YaoRTcBvP2-19" style="edgeStyle=none;curved=1;rounded=0;orthogonalLoop=1;jettySize=auto;html=1;entryX=0;entryY=0.5;entryDx=0;entryDy=0;fontSize=12;startSize=8;endSize=8;endArrow=none;endFill=0;" edge="1" parent="1" source="IC3wyQwt25YaoRTcBvP2-21" target="IC3wyQwt25YaoRTcBvP2-30">
          <mxGeometry relative="1" as="geometry" />
        </mxCell>
        <mxCell id="IC3wyQwt25YaoRTcBvP2-20" style="edgeStyle=none;curved=1;rounded=0;orthogonalLoop=1;jettySize=auto;html=1;fontSize=12;startSize=8;endSize=8;entryX=0;entryY=0.5;entryDx=0;entryDy=0;endArrow=none;endFill=0;" edge="1" parent="1" source="IC3wyQwt25YaoRTcBvP2-21" target="IC3wyQwt25YaoRTcBvP2-31">
          <mxGeometry relative="1" as="geometry">
            <mxPoint x="527" y="1498" as="targetPoint" />
          </mxGeometry>
        </mxCell>
        <mxCell id="IC3wyQwt25YaoRTcBvP2-21" value="Visiteur" style="shape=umlActor;verticalLabelPosition=bottom;verticalAlign=top;html=1;outlineConnect=0;" vertex="1" parent="1">
          <mxGeometry x="387" y="1568" width="30" height="60" as="geometry" />
        </mxCell>
        <mxCell id="IC3wyQwt25YaoRTcBvP2-22" value="CrÃ©ation de compte" style="ellipse;whiteSpace=wrap;html=1;" vertex="1" parent="1">
          <mxGeometry x="747" y="1808" width="120" height="80" as="geometry" />
        </mxCell>
        <mxCell id="IC3wyQwt25YaoRTcBvP2-23" value="Page d&#39;accueil" style="ellipse;whiteSpace=wrap;html=1;" vertex="1" parent="1">
          <mxGeometry x="747" y="1718" width="120" height="80" as="geometry" />
        </mxCell>
        <mxCell id="IC3wyQwt25YaoRTcBvP2-24" value="Vue des covoiturages" style="ellipse;whiteSpace=wrap;html=1;" vertex="1" parent="1">
          <mxGeometry x="747" y="1628" width="120" height="80" as="geometry" />
        </mxCell>
        <mxCell id="IC3wyQwt25YaoRTcBvP2-25" style="edgeStyle=none;curved=1;rounded=0;orthogonalLoop=1;jettySize=auto;html=1;fontSize=12;startSize=8;endSize=8;endArrow=classicThin;endFill=1;dashed=1;" edge="1" parent="1" source="IC3wyQwt25YaoRTcBvP2-27" target="IC3wyQwt25YaoRTcBvP2-24">
          <mxGeometry relative="1" as="geometry" />
        </mxCell>
        <mxCell id="IC3wyQwt25YaoRTcBvP2-26" value="&amp;lt;&amp;lt;include&amp;gt;&amp;gt;" style="edgeLabel;html=1;align=center;verticalAlign=middle;resizable=0;points=[];fontSize=12;" vertex="1" connectable="0" parent="IC3wyQwt25YaoRTcBvP2-25">
          <mxGeometry x="0.0448" relative="1" as="geometry">
            <mxPoint x="8" as="offset" />
          </mxGeometry>
        </mxCell>
        <mxCell id="IC3wyQwt25YaoRTcBvP2-27" value="Remplir un formulaire" style="ellipse;whiteSpace=wrap;html=1;" vertex="1" parent="1">
          <mxGeometry x="997" y="1628" width="120" height="80" as="geometry" />
        </mxCell>
        <mxCell id="IC3wyQwt25YaoRTcBvP2-28" value="Menu de l&#39;application" style="ellipse;whiteSpace=wrap;html=1;" vertex="1" parent="1">
          <mxGeometry x="747" y="1538" width="120" height="80" as="geometry" />
        </mxCell>
        <mxCell id="IC3wyQwt25YaoRTcBvP2-29" value="Filtres des covoiturages" style="ellipse;whiteSpace=wrap;html=1;" vertex="1" parent="1">
          <mxGeometry x="747" y="1448" width="120" height="80" as="geometry" />
        </mxCell>
        <mxCell id="IC3wyQwt25YaoRTcBvP2-30" value="Vue dÃ©taillÃ©e d&#39;un covoiturage" style="ellipse;whiteSpace=wrap;html=1;" vertex="1" parent="1">
          <mxGeometry x="747" y="1358" width="120" height="80" as="geometry" />
        </mxCell>
        <mxCell id="IC3wyQwt25YaoRTcBvP2-31" value="Participer Ã  un covoiturage" style="ellipse;whiteSpace=wrap;html=1;" vertex="1" parent="1">
          <mxGeometry x="747" y="1258" width="120" height="80" as="geometry" />
        </mxCell>
        <mxCell id="IC3wyQwt25YaoRTcBvP2-32" value="Espace utilisateur" style="ellipse;whiteSpace=wrap;html=1;" vertex="1" parent="1">
          <mxGeometry x="867" y="1138" width="120" height="80" as="geometry" />
        </mxCell>
        <mxCell id="IC3wyQwt25YaoRTcBvP2-33" value="Saisir un voyage" style="ellipse;whiteSpace=wrap;html=1;" vertex="1" parent="1">
          <mxGeometry x="867" y="1048" width="120" height="80" as="geometry" />
        </mxCell>
        <mxCell id="IC3wyQwt25YaoRTcBvP2-34" value="Historique des covoiturages" style="ellipse;whiteSpace=wrap;html=1;" vertex="1" parent="1">
          <mxGeometry x="867" y="958" width="120" height="80" as="geometry" />
        </mxCell>
        <mxCell id="IC3wyQwt25YaoRTcBvP2-35" value="DÃ©marrer et arrÃªter un covoiturage" style="ellipse;whiteSpace=wrap;html=1;" vertex="1" parent="1">
          <mxGeometry x="867" y="868" width="120" height="80" as="geometry" />
        </mxCell>
        <mxCell id="IC3wyQwt25YaoRTcBvP2-36" value="Espace employÃ©" style="ellipse;whiteSpace=wrap;html=1;" vertex="1" parent="1">
          <mxGeometry x="617" y="708" width="120" height="80" as="geometry" />
        </mxCell>
        <mxCell id="IC3wyQwt25YaoRTcBvP2-37" style="edgeStyle=none;curved=1;rounded=0;orthogonalLoop=1;jettySize=auto;html=1;entryX=0;entryY=0.5;entryDx=0;entryDy=0;fontSize=12;startSize=8;endSize=8;endArrow=classicThin;endFill=1;dashed=1;exitX=1;exitY=0.5;exitDx=0;exitDy=0;" edge="1" parent="1" source="IC3wyQwt25YaoRTcBvP2-41" target="IC3wyQwt25YaoRTcBvP2-42">
          <mxGeometry relative="1" as="geometry" />
        </mxCell>
        <mxCell id="IC3wyQwt25YaoRTcBvP2-38" value="&amp;lt;&amp;lt;extend&amp;gt;&amp;gt;" style="edgeLabel;html=1;align=center;verticalAlign=middle;resizable=0;points=[];fontSize=12;" vertex="1" connectable="0" parent="IC3wyQwt25YaoRTcBvP2-37">
          <mxGeometry x="0.0732" relative="1" as="geometry">
            <mxPoint as="offset" />
          </mxGeometry>
        </mxCell>
        <mxCell id="IC3wyQwt25YaoRTcBvP2-39" style="edgeStyle=none;curved=1;rounded=0;orthogonalLoop=1;jettySize=auto;html=1;entryX=0;entryY=0.5;entryDx=0;entryDy=0;fontSize=12;startSize=8;endSize=8;endArrow=classicThin;endFill=1;dashed=1;exitX=1;exitY=0.5;exitDx=0;exitDy=0;" edge="1" parent="1" source="IC3wyQwt25YaoRTcBvP2-41" target="IC3wyQwt25YaoRTcBvP2-43">
          <mxGeometry relative="1" as="geometry" />
        </mxCell>
        <mxCell id="IC3wyQwt25YaoRTcBvP2-40" value="&amp;lt;&amp;lt;extend&amp;gt;&amp;gt;" style="edgeLabel;html=1;align=center;verticalAlign=middle;resizable=0;points=[];fontSize=12;" vertex="1" connectable="0" parent="IC3wyQwt25YaoRTcBvP2-39">
          <mxGeometry x="0.016" relative="1" as="geometry">
            <mxPoint as="offset" />
          </mxGeometry>
        </mxCell>
        <mxCell id="IC3wyQwt25YaoRTcBvP2-41" value="Espace administrateur" style="ellipse;whiteSpace=wrap;html=1;" vertex="1" parent="1">
          <mxGeometry x="617" y="508" width="120" height="80" as="geometry" />
        </mxCell>
        <mxCell id="IC3wyQwt25YaoRTcBvP2-42" value="Concevoir les comptes des employÃ©s" style="ellipse;whiteSpace=wrap;html=1;" vertex="1" parent="1">
          <mxGeometry x="927" y="463" width="120" height="80" as="geometry" />
        </mxCell>
        <mxCell id="IC3wyQwt25YaoRTcBvP2-43" value="Suspendre compte employÃ© / utilisateur" style="ellipse;whiteSpace=wrap;html=1;" vertex="1" parent="1">
          <mxGeometry x="927" y="553" width="120" height="80" as="geometry" />
        </mxCell>
        <mxCell id="IC3wyQwt25YaoRTcBvP2-44" style="edgeStyle=none;curved=1;rounded=0;orthogonalLoop=1;jettySize=auto;html=1;fontSize=12;startSize=8;endSize=8;endArrow=classicThin;endFill=1;dashed=1;" edge="1" parent="1" source="IC3wyQwt25YaoRTcBvP2-46" target="IC3wyQwt25YaoRTcBvP2-30">
          <mxGeometry relative="1" as="geometry" />
        </mxCell>
        <mxCell id="IC3wyQwt25YaoRTcBvP2-45" value="&amp;lt;&amp;lt;include&amp;gt;&amp;gt;" style="edgeLabel;html=1;align=center;verticalAlign=middle;resizable=0;points=[];fontSize=12;" vertex="1" connectable="0" parent="IC3wyQwt25YaoRTcBvP2-44">
          <mxGeometry x="0.1638" y="-3" relative="1" as="geometry">
            <mxPoint x="15" y="3" as="offset" />
          </mxGeometry>
        </mxCell>
        <mxCell id="IC3wyQwt25YaoRTcBvP2-46" value="Click sur le bouton dÃ©tail" style="ellipse;whiteSpace=wrap;html=1;" vertex="1" parent="1">
          <mxGeometry x="997" y="1423" width="120" height="80" as="geometry" />
        </mxCell>
        <mxCell id="IC3wyQwt25YaoRTcBvP2-47" value="Se connecter / crÃ©er un compte si non utilisateur" style="ellipse;whiteSpace=wrap;html=1;" vertex="1" parent="1">
          <mxGeometry x="987" y="1248" width="140" height="90" as="geometry" />
        </mxCell>
        <mxCell id="IC3wyQwt25YaoRTcBvP2-48" style="edgeStyle=none;curved=1;rounded=0;orthogonalLoop=1;jettySize=auto;html=1;fontSize=12;startSize=8;endSize=8;endArrow=classicThin;endFill=1;dashed=1;" edge="1" parent="1">
          <mxGeometry relative="1" as="geometry">
            <mxPoint x="997" y="1297.4099999999999" as="sourcePoint" />
            <mxPoint x="867" y="1297.4099999999999" as="targetPoint" />
          </mxGeometry>
        </mxCell>
        <mxCell id="IC3wyQwt25YaoRTcBvP2-49" value="&amp;lt;&amp;lt;include&amp;gt;&amp;gt;" style="edgeLabel;html=1;align=center;verticalAlign=middle;resizable=0;points=[];fontSize=12;" vertex="1" connectable="0" parent="IC3wyQwt25YaoRTcBvP2-48">
          <mxGeometry x="0.1638" y="-3" relative="1" as="geometry">
            <mxPoint x="5" y="4" as="offset" />
          </mxGeometry>
        </mxCell>
        <mxCell id="IC3wyQwt25YaoRTcBvP2-50" value="Valider / refuser les avis sur les chauffeurs" style="ellipse;whiteSpace=wrap;html=1;" vertex="1" parent="1">
          <mxGeometry x="937" y="708" width="120" height="80" as="geometry" />
        </mxCell>
        <mxCell id="IC3wyQwt25YaoRTcBvP2-51" style="edgeStyle=none;curved=1;rounded=0;orthogonalLoop=1;jettySize=auto;html=1;entryX=0;entryY=0.5;entryDx=0;entryDy=0;fontSize=12;startSize=8;endSize=8;endArrow=classicThin;endFill=1;dashed=1;exitX=1;exitY=0.5;exitDx=0;exitDy=0;" edge="1" parent="1" source="IC3wyQwt25YaoRTcBvP2-36">
          <mxGeometry relative="1" as="geometry">
            <mxPoint x="747" y="698" as="sourcePoint" />
            <mxPoint x="937" y="743" as="targetPoint" />
          </mxGeometry>
        </mxCell>
        <mxCell id="IC3wyQwt25YaoRTcBvP2-52" value="&amp;lt;&amp;lt;extend&amp;gt;&amp;gt;" style="edgeLabel;html=1;align=center;verticalAlign=middle;resizable=0;points=[];fontSize=12;" vertex="1" connectable="0" parent="IC3wyQwt25YaoRTcBvP2-51">
          <mxGeometry x="0.016" relative="1" as="geometry">
            <mxPoint as="offset" />
          </mxGeometry>
        </mxCell>
      </root>
    </mxGraphModel>
  </diagram>
</mxfile>
